<?xml version="1.0" encoding="utf-8"?>
<svg viewBox="0 0 200 200" xmlns="http://www.w3.org/2000/svg">
  <rect width="0.699" height="0.699" style="fill: rgb(216, 216, 216);"/>
  <rect x="100" width="100" height="100" style="stroke-width: 0px; stroke-opacity: 0; fill: rgb(248, 187, 208);"/>
  <rect y="100" width="100" height="100" style="stroke-width: 0px; stroke-opacity: 0; fill: rgb(248, 187, 208);"/>
  <rect width="100" height="100" style="stroke-width: 0px; stroke-opacity: 0; fill: rgb(240, 98, 146);"/>
  <rect x="100" y="100" width="100" height="100" style="stroke-width: 0px; stroke-opacity: 0; fill: rgb(240, 98, 146);"/>
  <g id="layer1" transform="matrix(16.769566, 0, 0, 16.769566, 14.500002, 14)">
    <path style="fill-opacity: 1; stroke: none; stroke-width: 2.5; fill: rgb(244, 143, 177);" id="path1710" d="M 10.143441,9.0203734 C 9.4390009,10.2405 6.8158045,9.3187465 5.5287278,9.89179 4.2416511,10.464833 3.1713864,13.031022 1.793293,12.738099 0.41519955,12.445176 0.48122695,9.6655306 -0.46149834,8.6185281 -1.4042236,7.5715256 -4.1755437,7.3466392 -4.3228118,5.9454763 -4.47008,4.5443134 -1.8060765,3.7481515 -1.1016361,2.5280249 -0.39719561,1.3078983 -1.0397009,-1.3972774 0.24737583,-1.9703209 1.5344525,-2.5433643 3.1148698,-0.255774 4.4929633,0.0371488 5.8710567,0.33007161 8.2452866,-1.1169325 9.1880119,-0.06992996 10.130737,0.97707255 8.4434854,3.187043 8.5907535,4.5882059 8.7380217,5.9893688 10.847882,7.8002467 10.143441,9.0203734 Z" transform="matrix(0.28964376,0,0,0.28964376,1.253777,0.5972595)"/>
  </g>
  <g id="g-1" transform="matrix(16.769566, 0, 0, 16.769566, 114.5, 114)">
    <path style="fill-opacity: 1; stroke: none; stroke-width: 2.5; fill: rgb(244, 143, 177);" id="path-1" d="M 10.143441,9.0203734 C 9.4390009,10.2405 6.8158045,9.3187465 5.5287278,9.89179 4.2416511,10.464833 3.1713864,13.031022 1.793293,12.738099 0.41519955,12.445176 0.48122695,9.6655306 -0.46149834,8.6185281 -1.4042236,7.5715256 -4.1755437,7.3466392 -4.3228118,5.9454763 -4.47008,4.5443134 -1.8060765,3.7481515 -1.1016361,2.5280249 -0.39719561,1.3078983 -1.0397009,-1.3972774 0.24737583,-1.9703209 1.5344525,-2.5433643 3.1148698,-0.255774 4.4929633,0.0371488 5.8710567,0.33007161 8.2452866,-1.1169325 9.1880119,-0.06992996 10.130737,0.97707255 8.4434854,3.187043 8.5907535,4.5882059 8.7380217,5.9893688 10.847882,7.8002467 10.143441,9.0203734 Z" transform="matrix(0.28964376,0,0,0.28964376,1.253777,0.5972595)"/>
  </g>
</svg>